<svg width="52" height="53" viewBox="0 0 52 53" fill="none" xmlns="http://www.w3.org/2000/svg">
<path d="M25.9995 0C11.6405 0 0 11.9082 0 26.5973C0 39.0704 8.39471 49.537 19.719 52.4117V34.7255H14.358V26.5973H19.719V23.095C19.719 14.0423 23.724 9.84634 32.412 9.84634C34.0593 9.84634 36.9016 10.1772 38.0643 10.507V17.8745C37.4507 17.8085 36.3847 17.7755 35.0608 17.7755C30.7979 17.7755 29.1506 19.4278 29.1506 23.7227V26.5973H37.6431L36.184 34.7255H29.1506V53C42.0245 51.4095 52 40.196 52 26.5973C51.999 11.9082 40.3585 0 25.9995 0Z" fill="white"/>
</svg>
