<svg width="53" height="53" viewBox="0 0 53 53" fill="none" xmlns="http://www.w3.org/2000/svg">
<path d="M26.2894 4.73421C33.3136 4.73421 34.1454 4.76502 36.9079 4.88826C39.4752 5.00122 40.8616 5.43254 41.7858 5.79197C43.0079 6.26436 43.891 6.83945 44.805 7.75343C45.7292 8.67768 46.294 9.55059 46.7664 10.7726C47.1258 11.6969 47.5572 13.0935 47.6701 15.6506C47.7934 18.4234 47.8242 19.2552 47.8242 26.2692C47.8242 33.2935 47.7934 34.1254 47.6701 36.8879C47.5572 39.4552 47.1258 40.8416 46.7664 41.7658C46.294 42.9879 45.7189 43.8711 44.805 44.7851C43.8807 45.7093 43.0079 46.2741 41.7858 46.7465C40.8616 47.106 39.4649 47.5373 36.9079 47.6502C34.1352 47.7735 33.3034 47.8043 26.2894 47.8043C19.2652 47.8043 18.4334 47.7735 15.671 47.6502C13.1036 47.5373 11.7173 47.106 10.793 46.7465C9.57099 46.2741 8.68783 45.699 7.77386 44.7851C6.84963 43.8608 6.28482 42.9879 5.81243 41.7658C5.453 40.8416 5.02169 39.4449 4.90873 36.8879C4.7855 34.1151 4.75469 33.2833 4.75469 26.2692C4.75469 19.2449 4.7855 18.4131 4.90873 15.6506C5.02169 13.0833 5.453 11.6969 5.81243 10.7726C6.28482 9.55059 6.8599 8.66741 7.77386 7.75343C8.6981 6.82918 9.57099 6.26436 10.793 5.79197C11.7173 5.43254 13.1139 5.00122 15.671 4.88826C18.4334 4.76502 19.2652 4.73421 26.2894 4.73421ZM26.2894 0C19.1523 0 18.2588 0.0308083 15.4553 0.154042C12.6621 0.277275 10.7417 0.729131 9.07807 1.37611C7.34255 2.05389 5.87404 2.94733 4.4158 4.41586C2.94729 5.87412 2.05386 7.34266 1.37609 9.06792C0.729121 10.7418 0.277271 12.652 0.15404 15.4452C0.0308079 18.2591 0 19.1525 0 26.2898C0 33.427 0.0308079 34.3205 0.15404 37.1241C0.277271 39.9173 0.729121 41.8377 1.37609 43.5014C2.05386 45.2369 2.94729 46.7054 4.4158 48.1637C5.87404 49.622 7.34255 50.5257 9.0678 51.1932C10.7417 51.8402 12.6518 52.292 15.445 52.4153C18.2486 52.5385 19.142 52.5693 26.2792 52.5693C33.4163 52.5693 34.3098 52.5385 37.1133 52.4153C39.9065 52.292 41.8269 51.8402 43.4905 51.1932C45.2158 50.5257 46.6843 49.622 48.1425 48.1637C49.6007 46.7054 50.5044 45.2369 51.172 43.5116C51.8189 41.8377 52.2708 39.9276 52.394 37.1343C52.5172 34.3308 52.548 33.4373 52.548 26.3001C52.548 19.1628 52.5172 18.2693 52.394 15.4658C52.2708 12.6725 51.8189 10.7521 51.172 9.08846C50.525 7.34265 49.6316 5.87412 48.163 4.41586C46.7048 2.9576 45.2363 2.05389 43.5111 1.38638C41.8372 0.7394 39.9271 0.287545 37.1338 0.164311C34.32 0.0308084 33.4266 0 26.2894 0Z" fill="#F6BEBC"/>
<path d="M26.2894 12.7852C18.8338 12.7852 12.7852 18.8339 12.7852 26.2895C12.7852 33.7451 18.8338 39.7938 26.2894 39.7938C33.7449 39.7938 39.7935 33.7451 39.7935 26.2895C39.7935 18.8339 33.7449 12.7852 26.2894 12.7852ZM26.2894 35.0493C21.4525 35.0493 17.5296 31.1264 17.5296 26.2895C17.5296 21.4526 21.4525 17.5296 26.2894 17.5296C31.1262 17.5296 35.0491 21.4526 35.0491 26.2895C35.0491 31.1264 31.1262 35.0493 26.2894 35.0493Z" fill="#F6BEBC"/>
<path d="M43.48 12.2516C43.48 13.9974 42.0629 15.4043 40.3274 15.4043C38.5816 15.4043 37.1747 13.9871 37.1747 12.2516C37.1747 10.5058 38.5918 9.09888 40.3274 9.09888C42.0629 9.09888 43.48 10.5161 43.48 12.2516Z" fill="#F6BEBC"/>
</svg>
