<svg width="52" height="53" viewBox="0 0 52 53" fill="none" xmlns="http://www.w3.org/2000/svg">
<path d="M48.1508 0H3.83906C1.71641 0 0 1.70801 0 3.81973V49.1699C0 51.2816 1.71641 53 3.83906 53H48.1508C50.2734 53 52 51.2816 52 49.1803V3.81973C52 1.70801 50.2734 0 48.1508 0ZM15.4273 45.1639H7.70859V19.8646H15.4273V45.1639ZM11.568 16.4176C9.08984 16.4176 7.08906 14.3783 7.08906 11.8629C7.08906 9.34746 9.08984 7.3082 11.568 7.3082C14.0359 7.3082 16.0367 9.34746 16.0367 11.8629C16.0367 14.368 14.0359 16.4176 11.568 16.4176ZM44.3117 45.1639H36.6031V32.8662C36.6031 29.9367 36.5523 26.1584 32.5914 26.1584C28.5797 26.1584 27.9703 29.357 27.9703 32.6592V45.1639H20.2719V19.8646H27.6656V23.3221H27.7672C28.793 21.3346 31.3117 19.2332 35.0594 19.2332C42.8695 19.2332 44.3117 24.4711 44.3117 31.2824V45.1639V45.1639Z" fill="#F6BEBC"/>
</svg>
