<svg width="53" height="53" viewBox="0 0 53 53" fill="none" xmlns="http://www.w3.org/2000/svg">
<path d="M48.6988 0H4.3871C2.26444 0 0.548035 1.70801 0.548035 3.81973V49.1699C0.548035 51.2816 2.26444 53 4.3871 53H48.6988C50.8215 53 52.548 51.2816 52.548 49.1803V3.81973C52.548 1.70801 50.8215 0 48.6988 0ZM15.9754 45.1639H8.25663V19.8646H15.9754V45.1639ZM12.116 16.4176C9.63788 16.4176 7.6371 14.3783 7.6371 11.8629C7.6371 9.34746 9.63788 7.3082 12.116 7.3082C14.584 7.3082 16.5848 9.34746 16.5848 11.8629C16.5848 14.368 14.584 16.4176 12.116 16.4176ZM44.8598 45.1639H37.1512V32.8662C37.1512 29.9367 37.1004 26.1584 33.1394 26.1584C29.1277 26.1584 28.5183 29.357 28.5183 32.6592V45.1639H20.8199V19.8646H28.2137V23.3221H28.3152C29.341 21.3346 31.8598 19.2332 35.6074 19.2332C43.4176 19.2332 44.8598 24.4711 44.8598 31.2824V45.1639V45.1639Z" fill="white"/>
</svg>
