<svg width="53" height="53" viewBox="0 0 53 53" fill="none" xmlns="http://www.w3.org/2000/svg">
<path d="M26.2894 5.16463C33.3136 5.16463 34.1454 5.19544 36.9079 5.31868C39.4752 5.43164 40.8616 5.86296 41.7858 6.22239C43.0079 6.69478 43.891 7.26987 44.805 8.18385C45.7292 9.1081 46.294 9.98101 46.7664 11.2031C47.1258 12.1273 47.5572 13.524 47.6701 16.0811C47.7934 18.8538 47.8242 19.6856 47.8242 26.6997C47.8242 33.724 47.7934 34.5558 47.6701 37.3183C47.5572 39.8856 47.1258 41.272 46.7664 42.1963C46.294 43.4183 45.7189 44.3015 44.805 45.2155C43.8807 46.1397 43.0079 46.7045 41.7858 47.1769C40.8616 47.5364 39.4649 47.9677 36.9079 48.0807C34.1352 48.2039 33.3034 48.2347 26.2894 48.2347C19.2652 48.2347 18.4334 48.2039 15.671 48.0807C13.1036 47.9677 11.7173 47.5364 10.793 47.1769C9.57099 46.7045 8.68783 46.1295 7.77386 45.2155C6.84963 44.2912 6.28482 43.4183 5.81243 42.1963C5.453 41.272 5.02169 39.8754 4.90873 37.3183C4.7855 34.5455 4.75469 33.7137 4.75469 26.6997C4.75469 19.6754 4.7855 18.8435 4.90873 16.0811C5.02169 13.5137 5.453 12.1273 5.81243 11.2031C6.28482 9.98101 6.8599 9.09783 7.77386 8.18385C8.6981 7.2596 9.57099 6.69478 10.793 6.22239C11.7173 5.86296 13.1139 5.43164 15.671 5.31868C18.4334 5.19544 19.2652 5.16463 26.2894 5.16463ZM26.2894 0.43042C19.1523 0.43042 18.2588 0.461228 15.4553 0.584462C12.6621 0.707695 10.7417 1.15955 9.07807 1.80653C7.34255 2.48431 5.87404 3.37775 4.4158 4.84628C2.94729 6.30454 2.05386 7.77307 1.37609 9.49834C0.729121 11.1723 0.277271 13.0824 0.15404 15.8757C0.0308079 18.6895 0 19.5829 0 26.7202C0 33.8575 0.0308079 34.7509 0.15404 37.5545C0.277271 40.3478 0.729121 42.2681 1.37609 43.9318C2.05386 45.6673 2.94729 47.1359 4.4158 48.5941C5.87404 50.0524 7.34255 50.9561 9.0678 51.6236C10.7417 52.2706 12.6518 52.7224 15.445 52.8457C18.2486 52.9689 19.142 52.9997 26.2792 52.9997C33.4163 52.9997 34.3098 52.9689 37.1133 52.8457C39.9065 52.7224 41.8269 52.2706 43.4905 51.6236C45.2158 50.9561 46.6843 50.0524 48.1425 48.5941C49.6007 47.1359 50.5044 45.6673 51.172 43.9421C51.8189 42.2681 52.2708 40.358 52.394 37.5647C52.5172 34.7612 52.548 33.8677 52.548 26.7305C52.548 19.5932 52.5172 18.6998 52.394 15.8962C52.2708 13.1029 51.8189 11.1825 51.172 9.51888C50.525 7.77307 49.6316 6.30454 48.163 4.84628C46.7048 3.38802 45.2363 2.48431 43.5111 1.8168C41.8372 1.16982 39.9271 0.717964 37.1338 0.594731C34.32 0.461228 33.4266 0.43042 26.2894 0.43042Z" fill="white"/>
<path d="M26.2894 5.16488C33.3136 5.16488 34.1454 5.19569 36.9079 5.31892C39.4752 5.43188 40.8616 5.8632 41.7858 6.22263C43.0079 6.69503 43.891 7.27012 44.805 8.1841C45.7292 9.10835 46.294 9.98125 46.7664 11.2033C47.1258 12.1276 47.5572 13.5242 47.6701 16.0813C47.7934 18.8541 47.8242 19.6859 47.8242 26.6999C47.8242 33.7242 47.7934 34.556 47.6701 37.3185C47.5572 39.8859 47.1258 41.2723 46.7664 42.1965C46.294 43.4186 45.7189 44.3017 44.805 45.2157C43.8807 46.14 43.0079 46.7048 41.7858 47.1772C40.8616 47.5366 39.4649 47.9679 36.9079 48.0809C34.1352 48.2041 33.3034 48.2349 26.2894 48.2349C19.2652 48.2349 18.4334 48.2041 15.671 48.0809C13.1036 47.9679 11.7173 47.5366 10.793 47.1772C9.57099 46.7048 8.68783 46.1297 7.77386 45.2157C6.84963 44.2915 6.28482 43.4186 5.81243 42.1965C5.453 41.2723 5.02169 39.8756 4.90873 37.3185C4.7855 34.5458 4.75469 33.7139 4.75469 26.6999C4.75469 19.6756 4.7855 18.8438 4.90873 16.0813C5.02169 13.5139 5.453 12.1276 5.81243 11.2033C6.28482 9.98125 6.8599 9.09808 7.77386 8.1841C8.6981 7.25985 9.57099 6.69503 10.793 6.22263C11.7173 5.8632 13.1139 5.43188 15.671 5.31892C18.4334 5.19569 19.2652 5.16488 26.2894 5.16488ZM26.2894 0.430664C19.1523 0.430664 18.2588 0.461472 15.4553 0.584706C12.6621 0.707939 10.7417 1.15979 9.07807 1.80677C7.34255 2.48455 5.87404 3.378 4.4158 4.84653C2.94729 6.30479 2.05386 7.77332 1.37609 9.49859C0.729121 11.1725 0.277271 13.0826 0.15404 15.8759C0.0308079 18.6897 0 19.5832 0 26.7204C0 33.8577 0.0308079 34.7512 0.15404 37.5547C0.277271 40.348 0.729121 42.2684 1.37609 43.932C2.05386 45.6676 2.94729 47.1361 4.4158 48.5944C5.87404 50.0526 7.34255 50.9563 9.0678 51.6239C10.7417 52.2708 12.6518 52.7227 15.445 52.8459C18.2486 52.9691 19.142 53 26.2792 53C33.4163 53 34.3098 52.9691 37.1133 52.8459C39.9065 52.7227 41.8269 52.2708 43.4905 51.6239C45.2158 50.9563 46.6843 50.0526 48.1425 48.5944C49.6007 47.1361 50.5044 45.6676 51.172 43.9423C51.8189 42.2684 52.2708 40.3583 52.394 37.565C52.5172 34.7614 52.548 33.868 52.548 26.7307C52.548 19.5935 52.5172 18.7 52.394 15.8965C52.2708 13.1032 51.8189 11.1828 51.172 9.51912C50.525 7.77332 49.6316 6.30479 48.163 4.84653C46.7048 3.38826 45.2363 2.48455 43.5111 1.81704C41.8372 1.17006 39.9271 0.718209 37.1338 0.594975C34.32 0.461472 33.4266 0.430664 26.2894 0.430664Z" fill="white"/>
<path d="M26.2894 13.2158C18.8338 13.2158 12.7852 19.2645 12.7852 26.7201C12.7852 34.1758 18.8338 40.2245 26.2894 40.2245C33.7449 40.2245 39.7935 34.1758 39.7935 26.7201C39.7935 19.2645 33.7449 13.2158 26.2894 13.2158ZM26.2894 35.48C21.4525 35.48 17.5296 31.5571 17.5296 26.7201C17.5296 21.8832 21.4525 17.9603 26.2894 17.9603C31.1262 17.9603 35.0491 21.8832 35.0491 26.7201C35.0491 31.5571 31.1262 35.48 26.2894 35.48Z" fill="white"/>
<path d="M43.48 12.6823C43.48 14.4281 42.0629 15.835 40.3274 15.835C38.5816 15.835 37.1747 14.4178 37.1747 12.6823C37.1747 10.9365 38.5918 9.52954 40.3274 9.52954C42.0629 9.52954 43.48 10.9467 43.48 12.6823Z" fill="white"/>
</svg>
