<svg width="203" height="136" viewBox="0 0 203 136" fill="none" xmlns="http://www.w3.org/2000/svg">
<path d="M9.84079 0.75H45.7343C46.928 0.748872 48.1107 0.983836 49.2138 1.44141C50.3171 1.8991 51.3205 2.57109 52.165 3.41797C53.0093 4.26475 53.6792 5.27016 54.1357 6.37695C54.5923 7.48396 54.8263 8.67104 54.8252 9.86914V44.4717C54.8263 45.6696 54.5923 46.856 54.1357 47.9629C53.6791 49.0699 53.0095 50.076 52.165 50.9229C51.3205 51.7697 50.3171 52.4407 49.2138 52.8984C48.1106 53.356 46.9281 53.591 45.7343 53.5898H9.84079C8.64695 53.591 7.46459 53.3561 6.3613 52.8984C5.25811 52.4408 4.25553 51.7696 3.4111 50.9229C2.56663 50.076 1.89703 49.0699 1.4404 47.9629C0.983807 46.856 0.748882 45.6697 0.749969 44.4717V9.86914L0.760712 9.41992C0.811106 8.37513 1.04088 7.34551 1.4404 6.37695C1.89701 5.27011 2.56673 4.26476 3.4111 3.41797C4.25558 2.57109 5.258 1.8991 6.3613 1.44141C7.46457 0.983744 8.64698 0.748872 9.84079 0.75Z" stroke="white" stroke-width="1.5"/>
<path d="M26.9306 32.6047H18.3164L16.5565 38.0619C16.5368 38.1614 16.4808 38.2499 16.3994 38.3101C16.318 38.3702 16.2171 38.3977 16.1165 38.3871H11.7631C11.5084 38.3871 11.4389 38.2477 11.5084 37.9691L18.9648 16.442C19.0343 16.2098 19.1037 15.9543 19.1964 15.6757C19.2896 15.178 19.3361 14.6726 19.3353 14.1662C19.3284 14.1081 19.3436 14.0494 19.3779 14.002C19.4123 13.9547 19.4632 13.9221 19.5205 13.9108H25.5181C25.7033 13.9108 25.796 13.9804 25.8191 14.0965L34.2712 38.0155C34.3407 38.2709 34.2712 38.3871 34.0397 38.3871H29.2C29.1181 38.395 29.0361 38.3737 28.9683 38.327C28.9006 38.2803 28.8514 38.2111 28.8295 38.1316L26.9306 32.6047ZM19.6595 27.8906H25.5412C25.4023 27.4029 25.217 26.8224 25.0086 26.2186C24.8002 25.6148 24.5918 24.9181 24.3834 24.2215C24.175 23.5248 23.9434 22.8049 23.7119 22.085C23.4803 21.3651 23.2719 20.6917 23.0866 20.0182C22.9014 19.3448 22.7393 18.7642 22.5772 18.2069H22.5309C22.3228 19.219 22.06 20.2191 21.7436 21.2026C21.3962 22.3172 21.0489 23.4783 20.6784 24.6395C20.3542 25.8238 20.0068 26.9152 19.6595 27.8906Z" fill="white"/>
<path d="M39.3194 17.8821C38.9393 17.8904 38.5614 17.8229 38.2076 17.6833C37.8537 17.5438 37.5311 17.3351 37.2585 17.0693C36.728 16.4876 36.4454 15.7208 36.4712 14.9329C36.4575 14.549 36.5247 14.1665 36.6683 13.8104C36.812 13.4543 37.0288 13.1325 37.3048 12.8661C37.8614 12.3385 38.5999 12.0473 39.3658 12.0533C40.2689 12.0533 40.9636 12.332 41.473 12.8661C41.986 13.4292 42.2601 14.1705 42.2372 14.9329C42.2513 15.3252 42.1868 15.7164 42.0476 16.0834C41.9084 16.4504 41.6973 16.7856 41.4267 17.0693C41.1538 17.348 40.8245 17.5648 40.461 17.705C40.0975 17.8452 39.7082 17.9056 39.3194 17.8821ZM36.7259 38.0391V20.1579C36.7259 19.9257 36.8185 19.8328 37.0269 19.8328H41.6119C41.8203 19.8328 41.913 19.9489 41.913 20.1579V38.0391C41.913 38.2945 41.8203 38.4106 41.6119 38.4106H37.0733C37.0246 38.4146 36.9756 38.4076 36.9301 38.39C36.8845 38.3724 36.8435 38.3447 36.8101 38.309C36.7767 38.2732 36.7518 38.2304 36.7372 38.1837C36.7226 38.1369 36.7188 38.0875 36.7259 38.0391Z" fill="white"/>
<path d="M75.4166 0.75H111.31C112.504 0.748872 113.686 0.983836 114.79 1.44141C115.893 1.8991 116.896 2.57109 117.741 3.41797C118.585 4.26475 119.255 5.27016 119.711 6.37695C120.168 7.48396 120.402 8.67104 120.401 9.86914V44.4717C120.402 45.6696 120.168 46.856 119.711 47.9629C119.255 49.0699 118.585 50.076 117.741 50.9229C116.896 51.7697 115.893 52.4407 114.79 52.8984C113.686 53.356 112.504 53.591 111.31 53.5898H75.4166C74.2227 53.591 73.0404 53.3561 71.9371 52.8984C70.8339 52.4408 69.8313 51.7696 68.9869 50.9229C68.1424 50.076 67.4728 49.0699 67.0162 47.9629C66.5596 46.856 66.3247 45.6697 66.3257 44.4717V9.86914L66.3365 9.41992C66.3869 8.37513 66.6167 7.34551 67.0162 6.37695C67.4728 5.27011 68.1425 4.26476 68.9869 3.41797C69.8314 2.57109 70.8338 1.8991 71.9371 1.44141C73.0403 0.983744 74.2228 0.748872 75.4166 0.75Z" stroke="white" stroke-width="1.5"/>
<path d="M85.018 14.6603V37.6603H81.3539V14.6603H85.018Z" fill="white" stroke="white" stroke-width="1.5"/>
<path d="M90.1074 29.2738C90.0858 27.69 90.4906 26.1287 91.2803 24.7572C92.0907 23.3633 93.2649 22.2179 94.6748 21.4418L94.6787 21.4388C96.1627 20.6097 97.9753 20.1879 100.172 20.1879L100.18 20.1869C100.311 20.1854 100.443 20.1916 100.574 20.2054V20.2064C100.705 20.221 100.838 20.2271 100.954 20.2328C101.076 20.2388 101.19 20.244 101.313 20.2543L102.126 20.3226V12.6635H105.789V34.2299C105.789 34.6691 105.814 35.1549 105.837 35.6576C105.854 36.0311 105.886 36.4352 105.91 36.7494C104.824 37.1875 103.695 37.5137 102.541 37.7181H102.538C101.405 37.9241 100.256 38.0293 99.1045 38.0316H99.0938C97.5898 38.0563 96.0987 37.7643 94.7158 37.1761L94.4404 37.0551C93.1257 36.4372 92.0237 35.4409 91.2744 34.1927L91.2725 34.1898C90.5052 32.921 90.1074 31.3007 90.1074 29.2836V29.2738ZM102.126 23.3295L101.552 23.1908C101.32 23.1346 101.085 23.0909 100.848 23.0599L100.818 23.056C100.572 23.0335 100.286 23.0077 99.9942 23.0072H99.9863C98.9619 22.9969 97.9495 23.2305 97.0332 23.6898C96.1283 24.1422 95.3534 24.8186 94.7822 25.6547C94.1611 26.5608 93.8867 27.7238 93.8867 29.0287H93.8877C93.8702 29.818 93.981 30.6041 94.2168 31.3558L94.3262 31.6781C94.5871 32.398 95.0017 33.0521 95.5401 33.5961L95.5469 33.6039L95.5537 33.6107C96.0836 34.1179 96.724 34.495 97.4238 34.7133C98.1165 34.9395 98.8408 35.052 99.5694 35.0482V35.0492L99.5703 35.0482L99.5733 35.0492L99.5723 35.0482C99.9305 35.0481 100.262 35.0265 100.553 35.0043C100.921 35.0234 101.29 34.9681 101.636 34.8402L102.126 34.6595V23.3295Z" fill="white" stroke="white" stroke-width="1.5"/>
<path d="M140.992 0.75H176.886C178.079 0.748872 179.262 0.983836 180.365 1.44141C181.468 1.8991 182.472 2.57109 183.316 3.41797C184.16 4.26475 184.83 5.27016 185.287 6.37695C185.744 7.48396 185.977 8.67104 185.976 9.86914V44.4717C185.977 45.6696 185.743 46.856 185.287 47.9629C184.83 49.0699 184.161 50.076 183.316 50.9229C182.472 51.7697 181.468 52.4407 180.365 52.8984C179.262 53.356 178.079 53.591 176.886 53.5898H140.992C139.798 53.591 138.616 53.3561 137.512 52.8984C136.409 52.4408 135.407 51.7696 134.562 50.9229C133.718 50.076 133.048 49.0699 132.592 47.9629C132.135 46.856 131.9 45.6697 131.901 44.4717V9.86914L131.912 9.41992C131.962 8.37513 132.192 7.34551 132.592 6.37695C133.048 5.27011 133.718 4.26476 134.562 3.41797C135.407 2.57109 136.409 1.8991 137.512 1.44141C138.616 0.983744 139.798 0.748872 140.992 0.75Z" stroke="white" stroke-width="1.5"/>
<path d="M144.351 38.1086V14.2129C144.351 14.0503 144.42 13.9574 144.582 13.9574C144.976 13.9574 145.346 13.9574 145.879 13.9342C146.412 13.911 147.014 13.911 147.639 13.8878C148.264 13.8646 148.936 13.8646 149.653 13.8413C150.371 13.8181 151.066 13.8181 151.761 13.8181C153.66 13.8181 155.234 14.0503 156.531 14.538C157.693 14.9339 158.753 15.5844 159.634 16.4422C160.38 17.193 160.957 18.0958 161.324 19.0896C161.675 20.0573 161.855 21.0788 161.857 22.1085C161.857 24.1056 161.394 25.7544 160.468 27.0548C159.537 28.3535 158.238 29.3408 156.739 29.8879C155.165 30.4685 153.428 30.6775 151.529 30.6775C150.973 30.6775 150.603 30.6775 150.371 30.6543C150.14 30.6311 149.816 30.6311 149.376 30.6311V38.0854C149.381 38.1236 149.378 38.1625 149.368 38.1997C149.358 38.2369 149.341 38.2717 149.317 38.302C149.293 38.3323 149.263 38.3576 149.23 38.3762C149.196 38.3948 149.159 38.4065 149.121 38.4105H144.628C144.443 38.4105 144.351 38.3176 144.351 38.1086ZM149.399 18.4394V26.242C149.723 26.2653 150.024 26.2885 150.302 26.2885H151.529C152.433 26.2896 153.332 26.1485 154.192 25.8705C154.93 25.6528 155.59 25.2253 156.091 24.6397C156.577 24.0591 156.809 23.2696 156.809 22.2478C156.831 21.5221 156.646 20.8052 156.276 20.181C155.89 19.5781 155.322 19.1144 154.655 18.8574C153.786 18.5159 152.856 18.3578 151.923 18.3929C151.321 18.3929 150.788 18.3929 150.348 18.4161C150.032 18.3954 149.714 18.4031 149.399 18.4394Z" fill="white"/>
<path d="M165.099 19.7856H169.151C169.261 19.7882 169.367 19.8256 169.454 19.8923C169.542 19.959 169.606 20.0517 169.637 20.1571C169.708 20.344 169.755 20.539 169.776 20.7377C169.823 20.9699 169.869 21.2254 169.892 21.4576C169.915 21.6898 169.938 21.9917 169.938 22.2936C170.634 21.4796 171.474 20.8024 172.416 20.2965C173.493 19.6968 174.705 19.385 175.936 19.3908C175.974 19.3856 176.013 19.3882 176.05 19.3983C176.087 19.4084 176.122 19.4259 176.152 19.4497C176.182 19.4735 176.207 19.5032 176.226 19.537C176.245 19.5707 176.256 19.6079 176.26 19.6462V24.2675C176.26 24.4533 176.144 24.5229 175.89 24.5229C175.05 24.4953 174.209 24.5734 173.389 24.7551C172.72 24.8936 172.068 25.1038 171.444 25.3821C170.996 25.5847 170.594 25.8771 170.263 26.2414V38.0847C170.263 38.317 170.17 38.4098 169.962 38.4098H165.4C165.357 38.4171 165.313 38.4155 165.271 38.4053C165.229 38.395 165.19 38.3763 165.155 38.3502C165.12 38.3242 165.091 38.2913 165.07 38.2536C165.048 38.216 165.034 38.1743 165.029 38.1312V25.1731C165.029 24.6158 165.029 24.0353 165.006 23.4315C164.983 22.8277 164.983 22.2239 164.96 21.6201C164.96 21.086 164.913 20.5751 164.867 20.041C164.861 20.0136 164.86 19.9852 164.865 19.9575C164.87 19.9297 164.88 19.9033 164.895 19.8795C164.91 19.8558 164.93 19.8353 164.953 19.8192C164.976 19.803 165.002 19.7916 165.029 19.7856C165.029 19.7624 165.076 19.7624 165.099 19.7856Z" fill="white"/>
<path d="M9.84082 64.0914H45.7344C46.9281 64.0903 48.1107 64.3253 49.2139 64.7828C50.3172 65.2405 51.3206 65.9125 52.165 66.7594C53.0093 67.6062 53.6792 68.6116 54.1357 69.7184C54.5924 70.8254 54.8263 72.0125 54.8252 73.2106V107.813C54.8263 109.011 54.5923 110.197 54.1357 111.304C53.6791 112.411 53.0095 113.417 52.165 114.264C51.3206 115.111 50.3172 115.782 49.2139 116.24C48.1107 116.697 46.9281 116.932 45.7344 116.931H9.84082C8.64698 116.932 7.46462 116.698 6.36133 116.24C5.25814 115.782 4.25556 115.111 3.41113 114.264C2.56666 113.417 1.89706 112.411 1.44043 111.304C0.983838 110.197 0.748912 109.011 0.75 107.813V73.2106L0.760742 72.7614C0.811137 71.7166 1.04091 70.6869 1.44043 69.7184C1.89704 68.6115 2.56677 67.6062 3.41113 66.7594C4.25561 65.9125 5.25803 65.2405 6.36133 64.7828C7.4646 64.3252 8.64701 64.0903 9.84082 64.0914Z" stroke="white" stroke-width="1.5"/>
<path d="M12.504 101.449V77.5531C12.504 77.3905 12.5735 77.2977 12.7356 77.2977C13.1292 77.2977 13.4997 77.2977 14.0323 77.2744C14.5649 77.2512 15.167 77.2512 15.7922 77.228C16.4174 77.2048 17.089 77.2048 17.8068 77.1815C18.5247 77.1583 19.2194 77.1583 19.9141 77.1583C21.8129 77.1583 23.3875 77.3905 24.6843 77.8782C25.8468 78.2741 26.9067 78.9246 27.7873 79.7824C28.5335 80.5332 29.11 81.436 29.4777 82.4298C29.8282 83.3976 30.0085 84.419 30.0103 85.4487C30.0103 87.4458 29.5472 89.0946 28.6209 90.395C27.6904 91.6937 26.3911 92.681 24.8927 93.2281C23.3181 93.8087 21.5813 94.0177 19.6825 94.0177C19.1268 94.0177 18.7563 94.0177 18.5247 93.9945C18.2931 93.9713 17.9689 93.9713 17.529 93.9713V101.426C17.5341 101.464 17.5316 101.503 17.5215 101.54C17.5114 101.577 17.494 101.612 17.4702 101.642C17.4464 101.673 17.4169 101.698 17.3832 101.716C17.3495 101.735 17.3125 101.747 17.2742 101.751H12.7819C12.5966 101.751 12.504 101.658 12.504 101.449ZM17.5521 81.7796V89.5822C17.8763 89.6055 18.1773 89.6287 18.4552 89.6287H19.6825C20.5865 89.6298 21.4851 89.4887 22.3455 89.2107C23.0837 88.993 23.7432 88.5655 24.2443 87.9799C24.7306 87.3994 24.9622 86.6098 24.9622 85.588C24.984 84.8623 24.7992 84.1455 24.4296 83.5212C24.0435 82.9183 23.4756 82.4546 22.8086 82.1976C21.9393 81.8561 21.0091 81.698 20.0762 81.7331C19.4741 81.7331 18.9415 81.7331 18.5015 81.7563C18.185 81.7356 17.8673 81.7434 17.5521 81.7796Z" fill="white"/>
<path d="M44.4602 88.1651C43.761 87.7958 43.0123 87.5299 42.2372 87.3755C41.3859 87.1822 40.5165 87.081 39.6437 87.0737C39.175 87.0575 38.7066 87.1123 38.2543 87.2362C37.9658 87.2964 37.71 87.4619 37.5364 87.7007C37.4194 87.8891 37.3554 88.1057 37.3512 88.3277C37.3619 88.5486 37.4431 88.7602 37.5827 88.9314C37.8022 89.1896 38.0696 89.4025 38.3701 89.5584C38.9027 89.8371 39.4584 90.0926 40.0142 90.3248C41.2653 90.7471 42.4622 91.3162 43.5803 92.02C44.3407 92.4995 44.9696 93.1621 45.4096 93.9475C45.7817 94.6883 45.9647 95.5101 45.9422 96.3394C45.961 97.437 45.646 98.5143 45.0391 99.4279C44.3932 100.355 43.492 101.073 42.4456 101.495C41.3109 101.982 39.9215 102.238 38.2543 102.238C37.1971 102.242 36.1422 102.141 35.105 101.936C34.2883 101.794 33.494 101.544 32.743 101.193C32.6623 101.152 32.5952 101.089 32.5499 101.01C32.5046 100.932 32.4832 100.842 32.4883 100.752V96.7109C32.4863 96.6712 32.4936 96.6316 32.5097 96.5953C32.5258 96.559 32.5502 96.527 32.5809 96.5019C32.6136 96.4828 32.6514 96.4748 32.689 96.479C32.7265 96.4832 32.7617 96.4993 32.7893 96.5251C33.6813 97.0525 34.6502 97.4364 35.6607 97.663C36.553 97.8958 37.4713 98.0129 38.3932 98.0114C39.2732 98.0114 39.8984 97.8952 40.3152 97.6862C40.5011 97.6001 40.6587 97.4626 40.7694 97.2899C40.8802 97.1171 40.9395 96.9163 40.9404 96.7109C40.9404 96.3858 40.7552 96.0839 40.3847 95.782C40.0142 95.4801 39.25 95.1318 38.1153 94.6906C36.9513 94.2792 35.8459 93.7172 34.8271 93.0186C34.1015 92.4999 33.5003 91.8256 33.0672 91.0447C32.6977 90.3112 32.5147 89.4975 32.5346 88.676C32.538 87.6851 32.8102 86.7138 33.3219 85.8661C33.9102 84.9339 34.7545 84.192 35.7534 83.7297C36.8417 83.1723 38.208 82.9169 39.8521 82.9169C40.813 82.9171 41.7726 82.987 42.7235 83.1259C43.4072 83.2186 44.0763 83.3981 44.7149 83.66C44.8167 83.6961 44.9 83.7713 44.9465 83.869C44.9732 83.9596 44.9887 84.0532 44.9928 84.1477V87.9329C44.9932 87.978 44.9829 88.0226 44.9628 88.0629C44.9426 88.1033 44.9133 88.1383 44.877 88.1651C44.7423 88.2137 44.5949 88.2137 44.4602 88.1651Z" fill="white"/>
<path d="M66.3266 73.2606C66.3255 72.0562 66.5619 70.8628 67.0219 69.7499C67.4819 68.6371 68.1565 67.6258 69.0072 66.7743C69.858 65.9227 70.8682 65.2473 71.9799 64.787C72.9526 64.3843 73.9864 64.1532 75.0356 64.1024L75.4867 64.0917H111.632C112.835 64.0905 114.027 64.3267 115.139 64.787C116.251 65.2473 117.261 65.9227 118.112 66.7743C118.962 67.6258 119.637 68.6371 120.097 69.7499C120.557 70.8628 120.794 72.0562 120.792 73.2606V108.04C120.794 109.244 120.557 110.437 120.097 111.55C119.637 112.663 118.963 113.675 118.112 114.526C117.261 115.378 116.251 116.053 115.139 116.514C114.027 116.974 112.835 117.21 111.632 117.209H75.4867C74.2836 117.21 73.0917 116.974 71.9799 116.514C70.8682 116.053 69.8581 115.378 69.0072 114.526C68.1564 113.675 67.4819 112.663 67.0219 111.55C66.562 110.437 66.3255 109.244 66.3266 108.04V73.2606Z" stroke="white" stroke-width="1.5"/>
<path d="M88.263 108.467C91.4827 108.467 94.0928 105.855 94.0928 102.632V96.7969H88.263C85.0433 96.7969 82.4333 99.4094 82.4333 102.632C82.4333 105.855 85.0433 108.467 88.263 108.467Z" fill="white"/>
<path d="M82.4333 90.9608C82.4333 87.7381 85.0433 85.1256 88.263 85.1256H94.0928V96.7959H88.263C85.0433 96.7959 82.4333 94.1834 82.4333 90.9608Z" fill="white"/>
<path d="M82.4333 79.2901C82.4333 76.0674 85.0433 73.455 88.263 73.455H94.0928V85.1253H88.263C85.0433 85.1253 82.4333 82.5128 82.4333 79.2901Z" fill="white"/>
<path d="M94.0922 73.455H99.922C103.142 73.455 105.752 76.0674 105.752 79.2901C105.752 82.5128 103.142 85.1253 99.922 85.1253H94.0922V73.455Z" fill="white"/>
<path d="M105.752 90.9608C105.752 94.1834 103.142 96.7959 99.922 96.7959C96.7023 96.7959 94.0922 94.1834 94.0922 90.9608C94.0922 87.7381 96.7023 85.1256 99.922 85.1256C103.142 85.1256 105.752 87.7381 105.752 90.9608Z" fill="white"/>
<path d="M141.382 64.0907H177.276C178.469 64.0896 179.652 64.3245 180.755 64.7821C181.858 65.2398 182.862 65.9118 183.706 66.7587C184.551 67.6054 185.22 68.6109 185.677 69.7177C186.134 70.8247 186.368 72.0117 186.366 73.2098V107.812C186.368 109.01 186.134 110.197 185.677 111.304C185.22 112.411 184.551 113.417 183.706 114.264C182.862 115.11 181.858 115.781 180.755 116.239C179.652 116.697 178.469 116.932 177.276 116.931H141.382C140.188 116.932 139.006 116.697 137.903 116.239C136.799 115.781 135.797 115.11 134.952 114.264C134.108 113.417 133.438 112.411 132.982 111.304C132.525 110.197 132.29 109.01 132.291 107.812V73.2098L132.302 72.7606C132.352 71.7158 132.582 70.6862 132.982 69.7177C133.438 68.6108 134.108 67.6055 134.952 66.7587C135.797 65.9118 136.799 65.2398 137.903 64.7821C139.006 64.3244 140.188 64.0896 141.382 64.0907Z" stroke="white" stroke-width="1.5"/>
<path d="M179.501 73.7637L170.215 69.28C169.14 68.761 167.856 68.9799 167.012 69.8259L136.613 97.6213C135.796 98.369 135.797 99.6599 136.615 100.406L139.098 102.67C139.768 103.28 140.776 103.325 141.497 102.777L178.104 74.9269C179.332 73.9926 181.096 74.871 181.096 76.417V76.3088C181.096 75.2237 180.476 74.2345 179.501 73.7637Z" fill="white"/>
<g filter="url(#filter0_d_103_168)">
<path d="M179.501 109.201L170.215 113.685C169.14 114.204 167.856 113.985 167.012 113.139L136.613 85.3436C135.796 84.5959 135.796 83.305 136.615 82.5586L139.098 80.2948C139.768 79.6846 140.776 79.6396 141.496 80.1879L178.104 108.038C179.332 108.972 181.096 108.094 181.096 106.548V106.656C181.096 107.741 180.476 108.73 179.501 109.201Z" fill="white"/>
</g>
<g filter="url(#filter1_d_103_168)">
<path d="M170.215 113.685C169.14 114.203 167.856 113.984 167.012 113.138C168.051 114.181 169.829 113.442 169.829 111.968V70.9955C169.829 69.5213 168.051 68.783 167.012 69.8254C167.856 68.9794 169.14 68.7602 170.215 69.2787L179.5 73.7563C180.475 74.2268 181.096 75.2163 181.096 76.302V106.662C181.096 107.747 180.475 108.737 179.5 109.207L170.215 113.685Z" fill="white"/>
</g>
<g style="mix-blend-mode:overlay" opacity="0.25">
<g style="mix-blend-mode:overlay" opacity="0.25">
<path fill-rule="evenodd" clip-rule="evenodd" d="M167.959 113.771C168.669 114.048 169.478 114.031 170.195 113.685L179.473 109.207C180.448 108.737 181.068 107.747 181.068 106.662V76.302C181.068 75.2163 180.448 74.2268 179.473 73.7563L170.195 69.2787C169.254 68.825 168.154 68.9361 167.329 69.5378C167.211 69.6237 167.099 69.7197 166.993 69.8254L149.23 86.077L141.493 80.1871C140.773 79.6389 139.765 79.6838 139.096 80.294L136.615 82.5578C135.797 83.3042 135.796 84.5952 136.613 85.3428L143.323 91.4818L136.613 97.6208C135.796 98.3685 135.797 99.6594 136.615 100.406L139.096 102.67C139.765 103.28 140.773 103.325 141.493 102.777L149.23 96.8866L166.993 113.138C167.274 113.42 167.604 113.633 167.959 113.771ZM169.808 81.2218L156.33 91.4818L169.808 101.742V81.2218Z" fill="white"/>
</g>
</g>
<defs>
<filter id="filter0_d_103_168" x="114.667" y="58.4717" width="87.762" height="76.8254" filterUnits="userSpaceOnUse" color-interpolation-filters="sRGB">
<feFlood flood-opacity="0" result="BackgroundImageFix"/>
<feColorMatrix in="SourceAlpha" type="matrix" values="0 0 0 0 0 0 0 0 0 0 0 0 0 0 0 0 0 0 127 0" result="hardAlpha"/>
<feOffset/>
<feGaussianBlur stdDeviation="10.6667"/>
<feColorMatrix type="matrix" values="0 0 0 0 0 0 0 0 0 0 0 0 0 0 0 0 0 0 0.25 0"/>
<feBlend mode="overlay" in2="BackgroundImageFix" result="effect1_dropShadow_103_168"/>
<feBlend mode="normal" in="SourceGraphic" in2="effect1_dropShadow_103_168" result="shape"/>
</filter>
<filter id="filter1_d_103_168" x="145.679" y="47.667" width="56.7505" height="87.6297" filterUnits="userSpaceOnUse" color-interpolation-filters="sRGB">
<feFlood flood-opacity="0" result="BackgroundImageFix"/>
<feColorMatrix in="SourceAlpha" type="matrix" values="0 0 0 0 0 0 0 0 0 0 0 0 0 0 0 0 0 0 127 0" result="hardAlpha"/>
<feOffset/>
<feGaussianBlur stdDeviation="10.6667"/>
<feColorMatrix type="matrix" values="0 0 0 0 0 0 0 0 0 0 0 0 0 0 0 0 0 0 0.25 0"/>
<feBlend mode="overlay" in2="BackgroundImageFix" result="effect1_dropShadow_103_168"/>
<feBlend mode="normal" in="SourceGraphic" in2="effect1_dropShadow_103_168" result="shape"/>
</filter>
</defs>
</svg>
